Coordinates
version=1
nRows=14
nColumns=40
inDegrees=yes

Units are S.I. units (second, meters, Newtons, ...)
Angles are in degrees.

endheader
time	pelvis_tilt	pelvis_list	pelvis_rotation	pelvis_tx	pelvis_ty	pelvis_tz	hip_flexion_r	hip_adduction_r	hip_rotation_r	knee_angle_r	knee_angle_r_beta	ankle_angle_r	subtalar_angle_r	mtp_angle_r	hip_flexion_l	hip_adduction_l	hip_rotation_l	knee_angle_l	knee_angle_l_beta	ankle_angle_l	subtalar_angle_l	mtp_angle_l	lumbar_extension	lumbar_bending	lumbar_rotation	arm_flex_r	arm_add_r	arm_rot_r	elbow_flex_r	pro_sup_r	wrist_flex_r	wrist_dev_r	arm_flex_l	arm_add_l	arm_rot_l	elbow_flex_l	pro_sup_l	wrist_flex_l	wrist_dev_l
     25.06500000	     -4.86514758	     -3.68561389	     -5.35856931	      1.07568739	      0.92754226	      0.43738966	     23.34448707	     -1.97306666	    -14.45924983	      7.10465986	      7.10465986	      0.69468829	     11.68448796	      9.52291940	      3.61385790	     -5.62750217	    -13.96678438	     14.49548589	     14.49548589	     15.89822888	     -6.43168919	     -5.28126823	    -10.06272892	      2.38265366	      0.27668428	     -3.78339964	    -13.76874540	    -12.26584659	     31.10874101	     47.32377588	      0.00000000	      0.00000000	     18.44083864	    -19.17137983	     -6.89132780	     60.66094415	     46.44175565	      0.00000000	      0.00000000
     25.07850000	     -4.82957085	     -3.72906844	     -5.23444267	      1.07742949	      0.92673745	      0.43936725	     23.00397607	     -1.81000657	    -14.92766488	      7.69245235	      7.69245235	      0.53054970	     11.01510570	      8.86512597	      2.91940452	     -5.74020744	    -13.97193382	     14.20993431	     14.20993431	     16.21479173	     -6.18479632	     -5.32132750	     -9.83834797	      2.63842317	      0.26891117	     -3.37664396	    -13.58738123	    -12.16853960	     31.38524571	     47.30024476	      0.00000000	      0.00000000	     18.64198813	    -18.86277241	     -6.84951218	     60.88049201	     46.44801963	      0.00000000	      0.00000000
     25.09200000	     -4.80038762	     -3.78842117	     -5.05126380	      1.07929697	      0.92599265	      0.44140472	     22.63061174	     -1.67972598	    -15.33688163	      8.42383380	      8.42383380	      0.34776883	     10.30740304	      8.37919074	      2.24332065	     -5.87788047	    -13.87341169	     13.94879652	     13.94879652	     16.53497499	     -5.94885733	     -5.35461788	     -9.61106195	      2.95179639	      0.29741864	     -2.86745336	    -13.37661075	    -12.07756741	     31.66344267	     47.28216508	      0.00000000	      0.00000000	     18.74993552	    -18.46372020	     -6.75561941	     61.04263311	     46.44593172	      0.00000000	      0.00000000
     25.10550000	     -4.51969376	     -3.61259912	     -4.97226497	      1.08163761	      0.92506791	      0.44388355	     22.18045747	     -1.66659693	    -14.27054563	      9.38644248	      9.38644248	     -2.09509074	      7.41075080	     -0.34235872	      1.25201037	     -5.85802256	    -14.55723127	     13.76510679	     13.76510679	     17.36618633	     -4.53437579	     -4.70595661	     -9.61262530	      2.91547725	      0.20734864	     -3.06120926	    -13.54624530	    -10.78500379	     33.61587173	     47.02599900	      0.00000000	      0.00000000	     18.32035535	    -18.37375438	     -7.36467975	     62.31785384	     46.55986670	      0.00000000	      0.00000000
     25.11900000	     -4.39921739	     -3.79528350	     -4.70501495	      1.08379281	      0.92454302	      0.44613332	     21.75917095	     -1.49505291	    -14.55600510	     10.39709221	     10.39709221	     -1.90591850	      6.79093770	     -0.68832027	      0.50147491	     -6.15803986	    -14.37965049	     13.56449969	     13.56449969	     17.63974273	     -4.38893899	     -4.68362232	     -9.44146337	      3.36968816	      0.20510759	     -2.46776121	    -13.43882729	    -10.68820188	     33.86668608	     47.01040046	      0.00000000	      0.00000000	     18.28903245	    -17.88887783	     -7.19404203	     62.33450145	     46.54879569	      0.00000000	      0.00000000
     25.13250000	     -4.18042483	     -3.60779640	     -4.60004410	      1.08599256	      0.92397919	      0.44862843	     21.91019727	     -1.73815825	    -13.87907707	     12.53451303	     12.53451303	     -1.36034250	      4.99145111	     -1.79937687	     -0.42570986	     -6.05192419	    -14.54577022	     13.23973551	     13.23973551	     17.92062176	     -3.89601893	     -4.33766586	     -9.38241528	      3.37061445	      0.18375980	     -2.03283716	    -13.48351069	    -10.39766448	     34.41512894	     46.95866798	      0.00000000	      0.00000000	     18.16990483	    -17.83581910	     -7.22408418	     62.42392521	     46.56048676	      0.00000000	      0.00000000
     25.14600000	     -3.98918096	     -3.67375843	     -4.38835656	      1.08814057	      0.92361600	      0.45128057	     21.78635067	     -1.64857410	    -13.34917502	     14.02941746	     14.02941746	     -0.89809384	      3.45596762	     -2.61171492	     -1.09955252	     -6.31326668	    -14.52926391	     13.34660140	     13.34660140	     18.28632595	     -3.61935460	     -3.96454381	     -9.33951730	      3.65923960	      0.15653993	     -1.54076445	    -13.54550881	    -10.09767434	     35.11846876	     46.90178565	      0.00000000	      0.00000000	     17.90490781	    -17.61220977	     -7.23486885	     62.58582287	     46.57003984	      0.00000000	      0.00000000
     25.15950000	     -3.81367203	     -3.77119989	     -4.19441221	      1.09028371	      0.92343733	      0.45421606	     21.59977453	     -1.42009558	    -12.54602051	     15.21503441	     15.21503441	     -0.68129164	      1.58349911	     -3.98308089	     -1.52098456	     -6.76737914	    -14.86663244	     14.02051937	     14.02051937	     19.51575369	     -2.54077991	     -1.88018461	     -9.31823357	      3.95863372	     -0.01126374	     -1.54848834	    -13.99375833	     -7.99814672	     37.52490008	     46.59652398	      0.00000000	      0.00000000	     17.16627383	    -17.36617060	     -7.74800421	     63.44988844	     46.67330289	      0.00000000	      0.00000000
     25.17300000	     -3.62191712	     -3.78599083	     -4.00105189	      1.09231682	      0.92346543	      0.45715108	     21.51892557	     -1.36157219	    -12.10010044	     16.57754622	     16.57754622	      0.15046403	      0.54195169	     -4.25748994	     -1.96781822	     -7.04896163	    -14.71074487	     14.50241063	     14.50241063	     19.62913469	     -2.62509670	     -1.73613447	     -9.29426042	      4.16016564	     -0.03216482	     -0.88215065	    -14.05291884	     -7.85132508	     38.02601063	     46.56262991	      0.00000000	      0.00000000	     16.82619079	    -17.16783992	     -7.70038601	     63.31152832	     46.67305535	      0.00000000	      0.00000000
     25.18650000	     -3.47079045	     -3.85946891	     -3.81850100	      1.09426822	      0.92368611	      0.46034351	     21.41983267	     -1.13496904	    -11.40274803	     17.73215879	     17.73215879	      1.12914118	     -0.80645782	     -3.83076792	     -2.15476044	     -7.49782715	    -14.59703663	     15.41793125	     15.41793125	     19.93688416	     -2.65064034	     -1.17985118	     -9.25257974	      4.40252105	     -0.12114968	     -0.38719682	    -14.22749645	     -7.41796862	     39.28374534	     46.46545902	      0.00000000	      0.00000000	     16.18118909	    -16.96375299	     -7.91161886	     63.47735959	     46.70782456	      0.00000000	      0.00000000
     25.20000000	     -3.28354827	     -3.81438639	     -3.64813794	      1.09621235	      0.92409380	      0.46360996	     21.25655275	     -1.08572443	    -11.05726371	     18.78836857	     18.78836857	      2.06634696	     -1.47223267	     -3.85213096	     -2.24372595	     -7.84003075	    -14.36970435	     16.54057403	     16.54057403	     19.95356039	     -2.93054139	     -1.03053528	     -9.25202030	      4.48623608	     -0.14197800	      0.23397922	    -14.33962018	     -7.23890849	     40.17131390	     46.41306653	      0.00000000	      0.00000000	     15.62640710	    -16.77380303	     -7.98458374	     63.37386308	     46.71782055	      0.00000000	      0.00000000
     25.21350000	     -3.08573445	     -3.77735953	     -3.46321533	      1.09807744	      0.92472272	      0.46698994	     20.95435522	     -0.98787865	    -10.78186061	     19.57472266	     19.57472266	      2.96352841	     -2.09268578	     -3.76377325	     -2.13174420	     -8.25416075	    -14.03505609	     18.03459896	     18.03459896	     19.82699798	     -3.43636800	     -1.02256690	     -9.29746624	      4.55936748	     -0.16484991	      0.83735326	    -14.47845415	     -7.08831842	     41.20360726	     46.35873349	      0.00000000	      0.00000000	     14.99943053	    -16.59798296	     -8.09530544	     63.25513689	     46.72865565	      0.00000000	      0.00000000
     25.22700000	     -2.90948706	     -3.69521783	     -3.29876933	      1.09986176	      0.92542370	      0.47045484	     20.59793059	     -0.91885819	    -10.55810535	     20.19134181	     20.19134181	      3.85101545	     -2.51741837	     -3.56634395	     -1.78638503	     -8.66060850	    -13.58571231	     19.89215503	     19.89215503	     19.51498060	     -4.17419353	     -1.21359616	     -9.30875284	      4.56719568	     -0.19018594	      1.38082023	    -14.67013459	     -6.88251986	     42.54477354	     46.28838914	      0.00000000	      0.00000000	     14.25571974	    -16.39674992	     -8.27879178	     63.11752578	     46.74541445	      0.00000000	      0.00000000
     25.24050000	     -2.62267106	     -3.60504961	     -3.11027969	      1.10159302	      0.92635716	      0.47393654	     20.01803363	     -0.87782490	    -10.53560499	     20.62711936	     20.62711936	      4.63636260	     -2.68273454	     -3.57040723	     -1.35072205	     -9.09124512	    -13.01882377	     22.10098329	     22.10098329	     18.98826110	     -5.08859638	     -1.61457301	     -9.47465406	      4.52999828	     -0.13401176	      2.01020633	    -14.88063813	     -6.76636209	     43.62488071	     46.23855616	      0.00000000	      0.00000000	     13.63379470	    -16.19274745	     -8.37222573	     62.88601592	     46.75084145	      0.00000000	      0.00000000
